<svg viewBox="0 0 64 21" fill="none" xmlns="http://www.w3.org/2000/svg">
<path d="M0 16.464V3.234H6.3V4.53H1.44V8.67H5.274V9.966H1.44V15.168H6.3V16.464H0Z" fill="black"/>
<path d="M8.46 20.154V6.924H9.9V8.292C10.02 8.076 10.158 7.872 10.314 7.68C10.566 7.38 10.872 7.158 11.232 7.014C11.592 6.858 11.958 6.78 12.33 6.78C12.822 6.78 13.284 6.9 13.716 7.14C14.148 7.368 14.49 7.692 14.742 8.112C15.006 8.532 15.186 8.982 15.282 9.462C15.39 9.93 15.444 10.404 15.444 10.884V12.504C15.444 12.984 15.39 13.464 15.282 13.944C15.186 14.412 15.006 14.856 14.742 15.276C14.49 15.696 14.148 16.026 13.716 16.266C13.284 16.494 12.822 16.608 12.33 16.608C11.958 16.608 11.592 16.536 11.232 16.392C10.872 16.236 10.566 16.008 10.314 15.708C10.158 15.516 10.02 15.312 9.9 15.096V20.154H8.46ZM11.898 15.312C12.222 15.312 12.534 15.234 12.834 15.078C13.134 14.91 13.368 14.682 13.536 14.394C13.716 14.106 13.836 13.8 13.896 13.476C13.968 13.152 14.004 12.828 14.004 12.504V10.884C14.004 10.56 13.968 10.236 13.896 9.912C13.836 9.588 13.716 9.282 13.536 8.994C13.368 8.706 13.134 8.484 12.834 8.328C12.534 8.16 12.222 8.076 11.898 8.076C11.574 8.076 11.268 8.16 10.98 8.328C10.692 8.496 10.47 8.724 10.314 9.012C10.158 9.3 10.05 9.606 9.99 9.93C9.93 10.242 9.9 10.56 9.9 10.884V12.504C9.9 12.828 9.93 13.152 9.99 13.476C10.05 13.788 10.158 14.088 10.314 14.376C10.47 14.664 10.692 14.892 10.98 15.06C11.268 15.228 11.574 15.312 11.898 15.312Z" fill="black"/>
<path d="M20.61 16.464V8.22H18.162L18.18 6.924H22.032V16.464H20.61ZM20.88 5.25C20.676 5.25 20.478 5.208 20.286 5.124C20.106 5.04 19.974 4.908 19.89 4.728C19.806 4.536 19.764 4.338 19.764 4.134C19.752 3.93 19.788 3.738 19.872 3.558C19.968 3.366 20.106 3.228 20.286 3.144C20.478 3.06 20.676 3.012 20.88 3C21.084 3 21.276 3.048 21.456 3.144C21.648 3.228 21.786 3.366 21.87 3.558C21.954 3.738 22.002 3.93 22.014 4.134C22.002 4.338 21.954 4.536 21.87 4.728C21.786 4.908 21.648 5.04 21.456 5.124C21.276 5.208 21.084 5.25 20.88 5.25Z" fill="black"/>
<path d="M29.844 16.608C29.364 16.608 28.884 16.542 28.404 16.41C27.936 16.278 27.522 16.038 27.162 15.69C26.802 15.342 26.55 14.94 26.406 14.484L27.756 14.052C27.852 14.328 28.008 14.568 28.224 14.772C28.44 14.976 28.686 15.12 28.962 15.204C29.25 15.276 29.544 15.312 29.844 15.312C30.144 15.312 30.444 15.276 30.744 15.204C31.044 15.132 31.308 14.982 31.536 14.754C31.764 14.514 31.878 14.244 31.878 13.944C31.878 13.5 31.68 13.146 31.284 12.882C30.9 12.606 30.486 12.456 30.042 12.432C29.61 12.396 29.178 12.336 28.746 12.252C28.314 12.156 27.918 11.976 27.558 11.712C27.198 11.448 26.922 11.118 26.73 10.722C26.538 10.314 26.442 9.888 26.442 9.444C26.442 9.036 26.538 8.646 26.73 8.274C26.934 7.902 27.21 7.602 27.558 7.374C27.918 7.146 28.296 6.99 28.692 6.906C29.1 6.822 29.508 6.78 29.916 6.78C30.396 6.78 30.87 6.846 31.338 6.978C31.818 7.11 32.238 7.35 32.598 7.698C32.958 8.046 33.21 8.448 33.354 8.904L32.004 9.336C31.908 9.06 31.752 8.82 31.536 8.616C31.32 8.412 31.068 8.274 30.78 8.202C30.504 8.118 30.216 8.076 29.916 8.076C29.616 8.076 29.316 8.112 29.016 8.184C28.716 8.256 28.452 8.412 28.224 8.652C27.996 8.88 27.882 9.144 27.882 9.444C27.882 9.888 28.074 10.248 28.458 10.524C28.854 10.788 29.268 10.938 29.7 10.974C30.144 10.998 30.582 11.058 31.014 11.154C31.446 11.238 31.842 11.412 32.202 11.676C32.562 11.94 32.838 12.276 33.03 12.684C33.222 13.08 33.318 13.5 33.318 13.944C33.318 14.352 33.216 14.742 33.012 15.114C32.82 15.486 32.544 15.786 32.184 16.014C31.836 16.242 31.458 16.398 31.05 16.482C30.654 16.566 30.252 16.608 29.844 16.608Z" fill="black"/>
<path d="M35.46 16.464V3.234H36.9V8.292C37.02 8.076 37.158 7.872 37.314 7.68C37.566 7.392 37.866 7.17 38.214 7.014C38.574 6.858 38.946 6.78 39.33 6.78C39.702 6.78 40.068 6.858 40.428 7.014C40.788 7.17 41.088 7.398 41.328 7.698C41.58 7.986 41.778 8.31 41.922 8.67C42.066 9.018 42.162 9.378 42.21 9.75C42.27 10.122 42.3 10.5 42.3 10.884V16.464H40.86V10.884C40.86 10.56 40.83 10.242 40.77 9.93C40.71 9.606 40.602 9.306 40.446 9.03C40.29 8.742 40.068 8.514 39.78 8.346C39.504 8.166 39.204 8.076 38.88 8.076C38.556 8.076 38.25 8.166 37.962 8.346C37.686 8.514 37.47 8.742 37.314 9.03C37.158 9.306 37.05 9.606 36.99 9.93C36.93 10.242 36.9 10.56 36.9 10.884V16.464H35.46Z" fill="black"/>
<path d="M48.006 16.608C47.478 16.608 46.968 16.512 46.476 16.32C45.984 16.128 45.57 15.828 45.234 15.42C44.898 15.012 44.658 14.556 44.514 14.052C44.382 13.536 44.316 13.02 44.316 12.504V10.884C44.316 10.368 44.382 9.864 44.514 9.372C44.646 8.868 44.868 8.412 45.18 8.004C45.504 7.596 45.906 7.29 46.386 7.086C46.866 6.882 47.364 6.78 47.88 6.78C48.396 6.78 48.894 6.882 49.374 7.086C49.854 7.29 50.25 7.596 50.562 8.004C50.886 8.412 51.114 8.868 51.246 9.372C51.378 9.864 51.444 10.368 51.444 10.884V12.342H45.756V12.504C45.756 12.84 45.792 13.176 45.864 13.512C45.948 13.848 46.086 14.16 46.278 14.448C46.47 14.724 46.722 14.94 47.034 15.096C47.346 15.24 47.67 15.312 48.006 15.312C48.33 15.312 48.642 15.246 48.942 15.114C49.254 14.97 49.506 14.76 49.698 14.484C49.902 14.208 50.052 13.914 50.148 13.602L51.462 14.124C51.306 14.616 51.06 15.06 50.724 15.456C50.388 15.852 49.974 16.146 49.482 16.338C49.002 16.518 48.51 16.608 48.006 16.608ZM45.756 11.046H50.004V10.884C50.004 10.548 49.968 10.218 49.896 9.894C49.836 9.57 49.716 9.27 49.536 8.994C49.356 8.706 49.116 8.484 48.816 8.328C48.528 8.16 48.216 8.076 47.88 8.076C47.544 8.076 47.226 8.16 46.926 8.328C46.638 8.484 46.404 8.706 46.224 8.994C46.044 9.27 45.918 9.57 45.846 9.894C45.786 10.218 45.756 10.548 45.756 10.884V11.046Z" fill="black"/>
<path d="M56.16 16.464C54.36 12.468 53.46 9.606 53.46 7.878V6.924H54.9V7.878C54.9 9.402 55.56 11.85 56.88 15.222C58.2 11.85 58.86 9.402 58.86 7.878V6.924H60.3V7.878C60.3 9.606 59.4 12.468 57.6 16.464H56.16Z" fill="black"/>
<path d="M3.38 15.928V2.69799H9.68001V3.99399H4.82V8.13399H8.65401V9.42999H4.82V14.632H9.68001V15.928H3.38Z" fill="#24FF00"/>
<path d="M11.84 19.618V6.38799H13.28V7.75599C13.4 7.53999 13.538 7.33599 13.694 7.14399C13.946 6.84399 14.252 6.62199 14.612 6.47799C14.972 6.32199 15.338 6.24399 15.71 6.24399C16.202 6.24399 16.664 6.36399 17.096 6.60399C17.528 6.83199 17.87 7.15599 18.122 7.57599C18.386 7.99599 18.566 8.44599 18.662 8.92599C18.77 9.39399 18.824 9.86799 18.824 10.348V11.968C18.824 12.448 18.77 12.928 18.662 13.408C18.566 13.876 18.386 14.32 18.122 14.74C17.87 15.16 17.528 15.49 17.096 15.73C16.664 15.958 16.202 16.072 15.71 16.072C15.338 16.072 14.972 16 14.612 15.856C14.252 15.7 13.946 15.472 13.694 15.172C13.538 14.98 13.4 14.776 13.28 14.56V19.618H11.84ZM15.278 14.776C15.602 14.776 15.914 14.698 16.214 14.542C16.514 14.374 16.748 14.146 16.916 13.858C17.096 13.57 17.216 13.264 17.276 12.94C17.348 12.616 17.384 12.292 17.384 11.968V10.348C17.384 10.024 17.348 9.69999 17.276 9.37599C17.216 9.05199 17.096 8.74599 16.916 8.45799C16.748 8.16999 16.514 7.94799 16.214 7.79199C15.914 7.62399 15.602 7.53999 15.278 7.53999C14.954 7.53999 14.648 7.62399 14.36 7.79199C14.072 7.95999 13.85 8.18799 13.694 8.47599C13.538 8.76399 13.43 9.06999 13.37 9.39399C13.31 9.70599 13.28 10.024 13.28 10.348V11.968C13.28 12.292 13.31 12.616 13.37 12.94C13.43 13.252 13.538 13.552 13.694 13.84C13.85 14.128 14.072 14.356 14.36 14.524C14.648 14.692 14.954 14.776 15.278 14.776Z" fill="#24FF00"/>
<path d="M23.99 15.928V7.68399H21.542L21.56 6.38799H25.412V15.928H23.99ZM24.26 4.71399C24.056 4.71399 23.858 4.67199 23.666 4.58799C23.486 4.50399 23.354 4.37199 23.27 4.19199C23.186 3.99999 23.144 3.80199 23.144 3.59799C23.132 3.39399 23.168 3.20199 23.252 3.02199C23.348 2.82999 23.486 2.69199 23.666 2.60799C23.858 2.52399 24.056 2.47599 24.26 2.46399C24.464 2.46399 24.656 2.51199 24.836 2.60799C25.028 2.69199 25.166 2.82999 25.25 3.02199C25.334 3.20199 25.382 3.39399 25.394 3.59799C25.382 3.80199 25.334 3.99999 25.25 4.19199C25.166 4.37199 25.028 4.50399 24.836 4.58799C24.656 4.67199 24.464 4.71399 24.26 4.71399Z" fill="#24FF00"/>
<path d="M33.224 16.072C32.744 16.072 32.264 16.006 31.784 15.874C31.316 15.742 30.902 15.502 30.542 15.154C30.182 14.806 29.93 14.404 29.786 13.948L31.136 13.516C31.232 13.792 31.388 14.032 31.604 14.236C31.82 14.44 32.066 14.584 32.342 14.668C32.63 14.74 32.924 14.776 33.224 14.776C33.524 14.776 33.824 14.74 34.124 14.668C34.424 14.596 34.688 14.446 34.916 14.218C35.144 13.978 35.258 13.708 35.258 13.408C35.258 12.964 35.06 12.61 34.664 12.346C34.28 12.07 33.866 11.92 33.422 11.896C32.99 11.86 32.558 11.8 32.126 11.716C31.694 11.62 31.298 11.44 30.938 11.176C30.578 10.912 30.302 10.582 30.11 10.186C29.918 9.77799 29.822 9.35199 29.822 8.90799C29.822 8.49999 29.918 8.10999 30.11 7.73799C30.314 7.36599 30.59 7.06599 30.938 6.83799C31.298 6.60999 31.676 6.45399 32.072 6.36999C32.48 6.28599 32.888 6.24399 33.296 6.24399C33.776 6.24399 34.25 6.30999 34.718 6.44199C35.198 6.57399 35.618 6.81399 35.978 7.16199C36.338 7.50999 36.59 7.91199 36.734 8.36799L35.384 8.79999C35.288 8.52399 35.132 8.28399 34.916 8.07999C34.7 7.87599 34.448 7.73799 34.16 7.66599C33.884 7.58199 33.596 7.53999 33.296 7.53999C32.996 7.53999 32.696 7.57599 32.396 7.64799C32.096 7.71999 31.832 7.87599 31.604 8.11599C31.376 8.34399 31.262 8.60799 31.262 8.90799C31.262 9.35199 31.454 9.71199 31.838 9.98799C32.234 10.252 32.648 10.402 33.08 10.438C33.524 10.462 33.962 10.522 34.394 10.618C34.826 10.702 35.222 10.876 35.582 11.14C35.942 11.404 36.218 11.74 36.41 12.148C36.602 12.544 36.698 12.964 36.698 13.408C36.698 13.816 36.596 14.206 36.392 14.578C36.2 14.95 35.924 15.25 35.564 15.478C35.216 15.706 34.838 15.862 34.43 15.946C34.034 16.03 33.632 16.072 33.224 16.072Z" fill="#24FF00"/>
<path d="M38.84 15.928V2.69799H40.28V7.75599C40.4 7.53999 40.538 7.33599 40.694 7.14399C40.946 6.85599 41.246 6.63399 41.594 6.47799C41.954 6.32199 42.326 6.24399 42.71 6.24399C43.082 6.24399 43.448 6.32199 43.808 6.47799C44.168 6.63399 44.468 6.86199 44.708 7.16199C44.96 7.44999 45.158 7.77399 45.302 8.13399C45.446 8.48199 45.542 8.84199 45.59 9.21399C45.65 9.58599 45.68 9.96399 45.68 10.348V15.928H44.24V10.348C44.24 10.024 44.21 9.70599 44.15 9.39399C44.09 9.06999 43.982 8.76999 43.826 8.49399C43.67 8.20599 43.448 7.97799 43.16 7.80999C42.884 7.62999 42.584 7.53999 42.26 7.53999C41.936 7.53999 41.63 7.62999 41.342 7.80999C41.066 7.97799 40.85 8.20599 40.694 8.49399C40.538 8.76999 40.43 9.06999 40.37 9.39399C40.31 9.70599 40.28 10.024 40.28 10.348V15.928H38.84Z" fill="#24FF00"/>
<path d="M51.386 16.072C50.858 16.072 50.348 15.976 49.856 15.784C49.364 15.592 48.95 15.292 48.614 14.884C48.278 14.476 48.038 14.02 47.894 13.516C47.762 13 47.696 12.484 47.696 11.968V10.348C47.696 9.83199 47.762 9.32799 47.894 8.83599C48.026 8.33199 48.248 7.87599 48.56 7.46799C48.884 7.05999 49.286 6.75399 49.766 6.54999C50.246 6.34599 50.744 6.24399 51.26 6.24399C51.776 6.24399 52.274 6.34599 52.754 6.54999C53.234 6.75399 53.63 7.05999 53.942 7.46799C54.266 7.87599 54.494 8.33199 54.626 8.83599C54.758 9.32799 54.824 9.83199 54.824 10.348V11.806H49.136V11.968C49.136 12.304 49.172 12.64 49.244 12.976C49.328 13.312 49.466 13.624 49.658 13.912C49.85 14.188 50.102 14.404 50.414 14.56C50.726 14.704 51.05 14.776 51.386 14.776C51.71 14.776 52.022 14.71 52.322 14.578C52.634 14.434 52.886 14.224 53.078 13.948C53.282 13.672 53.432 13.378 53.528 13.066L54.842 13.588C54.686 14.08 54.44 14.524 54.104 14.92C53.768 15.316 53.354 15.61 52.862 15.802C52.382 15.982 51.89 16.072 51.386 16.072ZM49.136 10.51H53.384V10.348C53.384 10.012 53.348 9.68199 53.276 9.35799C53.216 9.03399 53.096 8.73399 52.916 8.45799C52.736 8.16999 52.496 7.94799 52.196 7.79199C51.908 7.62399 51.596 7.53999 51.26 7.53999C50.924 7.53999 50.606 7.62399 50.306 7.79199C50.018 7.94799 49.784 8.16999 49.604 8.45799C49.424 8.73399 49.298 9.03399 49.226 9.35799C49.166 9.68199 49.136 10.012 49.136 10.348V10.51Z" fill="#24FF00"/>
<path d="M59.54 15.928C57.74 11.932 56.84 9.06999 56.84 7.34199V6.38799H58.28V7.34199C58.28 8.86599 58.94 11.314 60.26 14.686C61.58 11.314 62.24 8.86599 62.24 7.34199V6.38799H63.68V7.34199C63.68 9.06999 62.78 11.932 60.98 15.928H59.54Z" fill="#24FF00"/>
<path d="M1 13.464V0.234H7.3V1.53H2.44V5.67H6.274V6.966H2.44V12.168H7.3V13.464H1Z" fill="#FB21FF"/>
<path d="M9.46 17.154V3.924H10.9V5.292C11.02 5.076 11.158 4.872 11.314 4.68C11.566 4.38 11.872 4.158 12.232 4.014C12.592 3.858 12.958 3.78 13.33 3.78C13.822 3.78 14.284 3.9 14.716 4.14C15.148 4.368 15.49 4.692 15.742 5.112C16.006 5.532 16.186 5.982 16.282 6.462C16.39 6.93 16.444 7.404 16.444 7.884V9.504C16.444 9.984 16.39 10.464 16.282 10.944C16.186 11.412 16.006 11.856 15.742 12.276C15.49 12.696 15.148 13.026 14.716 13.266C14.284 13.494 13.822 13.608 13.33 13.608C12.958 13.608 12.592 13.536 12.232 13.392C11.872 13.236 11.566 13.008 11.314 12.708C11.158 12.516 11.02 12.312 10.9 12.096V17.154H9.46ZM12.898 12.312C13.222 12.312 13.534 12.234 13.834 12.078C14.134 11.91 14.368 11.682 14.536 11.394C14.716 11.106 14.836 10.8 14.896 10.476C14.968 10.152 15.004 9.828 15.004 9.504V7.884C15.004 7.56 14.968 7.236 14.896 6.912C14.836 6.588 14.716 6.282 14.536 5.994C14.368 5.706 14.134 5.484 13.834 5.328C13.534 5.16 13.222 5.076 12.898 5.076C12.574 5.076 12.268 5.16 11.98 5.328C11.692 5.496 11.47 5.724 11.314 6.012C11.158 6.3 11.05 6.606 10.99 6.93C10.93 7.242 10.9 7.56 10.9 7.884V9.504C10.9 9.828 10.93 10.152 10.99 10.476C11.05 10.788 11.158 11.088 11.314 11.376C11.47 11.664 11.692 11.892 11.98 12.06C12.268 12.228 12.574 12.312 12.898 12.312Z" fill="#FB21FF"/>
<path d="M21.61 13.464V5.22H19.162L19.18 3.924H23.032V13.464H21.61ZM21.88 2.25C21.676 2.25 21.478 2.208 21.286 2.124C21.106 2.04 20.974 1.908 20.89 1.728C20.806 1.536 20.764 1.338 20.764 1.134C20.752 0.93 20.788 0.738 20.872 0.558C20.968 0.366 21.106 0.228 21.286 0.144C21.478 0.0599999 21.676 0.0119998 21.88 0C22.084 0 22.276 0.0480001 22.456 0.144C22.648 0.228 22.786 0.366 22.87 0.558C22.954 0.738 23.002 0.93 23.014 1.134C23.002 1.338 22.954 1.536 22.87 1.728C22.786 1.908 22.648 2.04 22.456 2.124C22.276 2.208 22.084 2.25 21.88 2.25Z" fill="#FB21FF"/>
<path d="M30.844 13.608C30.364 13.608 29.884 13.542 29.404 13.41C28.936 13.278 28.522 13.038 28.162 12.69C27.802 12.342 27.55 11.94 27.406 11.484L28.756 11.052C28.852 11.328 29.008 11.568 29.224 11.772C29.44 11.976 29.686 12.12 29.962 12.204C30.25 12.276 30.544 12.312 30.844 12.312C31.144 12.312 31.444 12.276 31.744 12.204C32.044 12.132 32.308 11.982 32.536 11.754C32.764 11.514 32.878 11.244 32.878 10.944C32.878 10.5 32.68 10.146 32.284 9.882C31.9 9.606 31.486 9.456 31.042 9.432C30.61 9.396 30.178 9.336 29.746 9.252C29.314 9.156 28.918 8.976 28.558 8.712C28.198 8.448 27.922 8.118 27.73 7.722C27.538 7.314 27.442 6.888 27.442 6.444C27.442 6.036 27.538 5.646 27.73 5.274C27.934 4.902 28.21 4.602 28.558 4.374C28.918 4.146 29.296 3.99 29.692 3.906C30.1 3.822 30.508 3.78 30.916 3.78C31.396 3.78 31.87 3.846 32.338 3.978C32.818 4.11 33.238 4.35 33.598 4.698C33.958 5.046 34.21 5.448 34.354 5.904L33.004 6.336C32.908 6.06 32.752 5.82 32.536 5.616C32.32 5.412 32.068 5.274 31.78 5.202C31.504 5.118 31.216 5.076 30.916 5.076C30.616 5.076 30.316 5.112 30.016 5.184C29.716 5.256 29.452 5.412 29.224 5.652C28.996 5.88 28.882 6.144 28.882 6.444C28.882 6.888 29.074 7.248 29.458 7.524C29.854 7.788 30.268 7.938 30.7 7.974C31.144 7.998 31.582 8.058 32.014 8.154C32.446 8.238 32.842 8.412 33.202 8.676C33.562 8.94 33.838 9.276 34.03 9.684C34.222 10.08 34.318 10.5 34.318 10.944C34.318 11.352 34.216 11.742 34.012 12.114C33.82 12.486 33.544 12.786 33.184 13.014C32.836 13.242 32.458 13.398 32.05 13.482C31.654 13.566 31.252 13.608 30.844 13.608Z" fill="#FB21FF"/>
<path d="M36.46 13.464V0.234H37.9V5.292C38.02 5.076 38.158 4.872 38.314 4.68C38.566 4.392 38.866 4.17 39.214 4.014C39.574 3.858 39.946 3.78 40.33 3.78C40.702 3.78 41.068 3.858 41.428 4.014C41.788 4.17 42.088 4.398 42.328 4.698C42.58 4.986 42.778 5.31 42.922 5.67C43.066 6.018 43.162 6.378 43.21 6.75C43.27 7.122 43.3 7.5 43.3 7.884V13.464H41.86V7.884C41.86 7.56 41.83 7.242 41.77 6.93C41.71 6.606 41.602 6.306 41.446 6.03C41.29 5.742 41.068 5.514 40.78 5.346C40.504 5.166 40.204 5.076 39.88 5.076C39.556 5.076 39.25 5.166 38.962 5.346C38.686 5.514 38.47 5.742 38.314 6.03C38.158 6.306 38.05 6.606 37.99 6.93C37.93 7.242 37.9 7.56 37.9 7.884V13.464H36.46Z" fill="#FB21FF"/>
<path d="M49.006 13.608C48.478 13.608 47.968 13.512 47.476 13.32C46.984 13.128 46.57 12.828 46.234 12.42C45.898 12.012 45.658 11.556 45.514 11.052C45.382 10.536 45.316 10.02 45.316 9.504V7.884C45.316 7.368 45.382 6.864 45.514 6.372C45.646 5.868 45.868 5.412 46.18 5.004C46.504 4.596 46.906 4.29 47.386 4.086C47.866 3.882 48.364 3.78 48.88 3.78C49.396 3.78 49.894 3.882 50.374 4.086C50.854 4.29 51.25 4.596 51.562 5.004C51.886 5.412 52.114 5.868 52.246 6.372C52.378 6.864 52.444 7.368 52.444 7.884V9.342H46.756V9.504C46.756 9.84 46.792 10.176 46.864 10.512C46.948 10.848 47.086 11.16 47.278 11.448C47.47 11.724 47.722 11.94 48.034 12.096C48.346 12.24 48.67 12.312 49.006 12.312C49.33 12.312 49.642 12.246 49.942 12.114C50.254 11.97 50.506 11.76 50.698 11.484C50.902 11.208 51.052 10.914 51.148 10.602L52.462 11.124C52.306 11.616 52.06 12.06 51.724 12.456C51.388 12.852 50.974 13.146 50.482 13.338C50.002 13.518 49.51 13.608 49.006 13.608ZM46.756 8.046H51.004V7.884C51.004 7.548 50.968 7.218 50.896 6.894C50.836 6.57 50.716 6.27 50.536 5.994C50.356 5.706 50.116 5.484 49.816 5.328C49.528 5.16 49.216 5.076 48.88 5.076C48.544 5.076 48.226 5.16 47.926 5.328C47.638 5.484 47.404 5.706 47.224 5.994C47.044 6.27 46.918 6.57 46.846 6.894C46.786 7.218 46.756 7.548 46.756 7.884V8.046Z" fill="#FB21FF"/>
<path d="M57.16 13.464C55.36 9.468 54.46 6.606 54.46 4.878V3.924H55.9V4.878C55.9 6.402 56.56 8.85 57.88 12.222C59.2 8.85 59.86 6.402 59.86 4.878V3.924H61.3V4.878C61.3 6.606 60.4 9.468 58.6 13.464H57.16Z" fill="#FB21FF"/>
</svg>
