<svg xmlns="http://www.w3.org/2000/svg" xmlns:xlink="http://www.w3.org/1999/xlink"><symbol id="logo" viewBox="0 0 64 21"><path d="M0 16.464V3.234h6.3V4.53H1.44v4.14h3.834v1.296H1.44v5.202H6.3v1.296H0zM8.46 20.154V6.924H9.9v1.368c.12-.216.258-.42.414-.612.252-.3.558-.522.918-.666.36-.156.726-.234 1.098-.234.492 0 .954.12 1.386.36a2.58 2.58 0 011.026.972c.264.42.444.87.54 1.35.108.468.162.942.162 1.422v1.62c0 .48-.054.96-.162 1.44a3.996 3.996 0 01-.54 1.332 2.71 2.71 0 01-1.026.99 2.933 2.933 0 01-2.484.126 2.46 2.46 0 01-.918-.684 4.214 4.214 0 01-.414-.612v5.058H8.46zm3.438-4.842c.324 0 .636-.078.936-.234.3-.168.534-.396.702-.684.18-.288.3-.594.36-.918.072-.324.108-.648.108-.972v-1.62c0-.324-.036-.648-.108-.972-.06-.324-.18-.63-.36-.918a1.708 1.708 0 00-.702-.666 1.89 1.89 0 00-.936-.252c-.324 0-.63.084-.918.252-.288.168-.51.396-.666.684a3.1 3.1 0 00-.324.918c-.06.312-.09.63-.09.954v1.62c0 .324.03.648.09.972.06.312.168.612.324.9.156.288.378.516.666.684.288.168.594.252.918.252zM20.61 16.464V8.22h-2.448l.018-1.296h3.852v9.54H20.61zm.27-11.214c-.204 0-.402-.042-.594-.126a.795.795 0 01-.396-.396 1.468 1.468 0 01-.126-.594 1.177 1.177 0 01.108-.576.867.867 0 01.414-.414c.192-.084.39-.132.594-.144.204 0 .396.048.576.144.192.084.33.222.414.414.084.18.132.372.144.576-.012.204-.06.402-.144.594a.786.786 0 01-.414.396c-.18.084-.372.126-.576.126zM29.844 16.608c-.48 0-.96-.066-1.44-.198a2.895 2.895 0 01-1.242-.72 2.854 2.854 0 01-.756-1.206l1.35-.432c.096.276.252.516.468.72.216.204.462.348.738.432.288.072.582.108.882.108.3 0 .6-.036.9-.108.3-.072.564-.222.792-.45.228-.24.342-.51.342-.81 0-.444-.198-.798-.594-1.062a2.308 2.308 0 00-1.242-.45 12.012 12.012 0 01-1.296-.18 3.14 3.14 0 01-1.188-.54 2.64 2.64 0 01-.828-.99 2.967 2.967 0 01-.288-1.278c0-.408.096-.798.288-1.17.204-.372.48-.672.828-.9.36-.228.738-.384 1.134-.468a6.055 6.055 0 011.224-.126c.48 0 .954.066 1.422.198.48.132.9.372 1.26.72s.612.75.756 1.206l-1.35.432a1.784 1.784 0 00-.468-.72 1.675 1.675 0 00-.756-.414 2.95 2.95 0 00-.864-.126c-.3 0-.6.036-.9.108a1.59 1.59 0 00-.792.468 1.087 1.087 0 00-.342.792c0 .444.192.804.576 1.08.396.264.81.414 1.242.45a8.05 8.05 0 011.314.18c.432.084.828.258 1.188.522s.636.6.828 1.008c.192.396.288.816.288 1.26a2.4 2.4 0 01-.306 1.17 2.296 2.296 0 01-.828.9 3.245 3.245 0 01-1.134.468 5.796 5.796 0 01-1.206.126zM35.46 16.464V3.234h1.44v5.058c.12-.216.258-.42.414-.612a2.59 2.59 0 01.9-.666 2.738 2.738 0 012.214 0c.36.156.66.384.9.684.252.288.45.612.594.972.144.348.24.708.288 1.08.06.372.09.75.09 1.134v5.58h-1.44v-5.58c0-.324-.03-.642-.09-.954a2.881 2.881 0 00-.324-.9 1.737 1.737 0 00-.666-.684 1.615 1.615 0 00-.9-.27c-.324 0-.63.09-.918.27a1.776 1.776 0 00-.648.684 2.881 2.881 0 00-.324.9c-.06.312-.09.63-.09.954v5.58h-1.44zM48.006 16.608a4.173 4.173 0 01-1.53-.288 2.993 2.993 0 01-1.242-.9 3.752 3.752 0 01-.72-1.368 6.225 6.225 0 01-.198-1.548v-1.62c0-.516.066-1.02.198-1.512.132-.504.354-.96.666-1.368a3.03 3.03 0 011.206-.918c.48-.204.978-.306 1.494-.306s1.014.102 1.494.306c.48.204.876.51 1.188.918.324.408.552.864.684 1.368.132.492.198.996.198 1.512v1.458h-5.688v.162c0 .336.036.672.108 1.008.084.336.222.648.414.936.192.276.444.492.756.648a2.294 2.294 0 001.908.018c.312-.144.564-.354.756-.63.204-.276.354-.57.45-.882l1.314.522a3.828 3.828 0 01-.738 1.332c-.336.396-.75.69-1.242.882-.48.18-.972.27-1.476.27zm-2.25-5.562h4.248v-.162a4.55 4.55 0 00-.108-.99 2.448 2.448 0 00-.36-.9c-.18-.288-.42-.51-.72-.666a1.826 1.826 0 00-.936-.252c-.336 0-.654.084-.954.252a1.867 1.867 0 00-.702.666 2.71 2.71 0 00-.378.9c-.06.324-.09.654-.09.99v.162zM56.16 16.464c-1.8-3.996-2.7-6.858-2.7-8.586v-.954h1.44v.954c0 1.524.66 3.972 1.98 7.344 1.32-3.372 1.98-5.82 1.98-7.344v-.954h1.44v.954c0 1.728-.9 4.59-2.7 8.586h-1.44z" fill="#000"/><path d="M3.38 15.928V2.698h6.3v1.296H4.82v4.14h3.834V9.43H4.82v5.202h4.86v1.296h-6.3zM11.84 19.618V6.388h1.44v1.368c.12-.216.258-.42.414-.612.252-.3.558-.522.918-.666.36-.156.726-.234 1.098-.234.492 0 .954.12 1.386.36a2.58 2.58 0 011.026.972c.264.42.444.87.54 1.35.108.468.162.942.162 1.422v1.62c0 .48-.054.96-.162 1.44a3.996 3.996 0 01-.54 1.332 2.71 2.71 0 01-1.026.99 2.933 2.933 0 01-2.484.126 2.46 2.46 0 01-.918-.684 4.214 4.214 0 01-.414-.612v5.058h-1.44zm3.438-4.842c.324 0 .636-.078.936-.234.3-.168.534-.396.702-.684.18-.288.3-.594.36-.918.072-.324.108-.648.108-.972v-1.62c0-.324-.036-.648-.108-.972-.06-.324-.18-.63-.36-.918a1.708 1.708 0 00-.702-.666 1.89 1.89 0 00-.936-.252c-.324 0-.63.084-.918.252-.288.168-.51.396-.666.684a3.1 3.1 0 00-.324.918c-.06.312-.09.63-.09.954v1.62c0 .324.03.648.09.972.06.312.168.612.324.9.156.288.378.516.666.684.288.168.594.252.918.252zM23.99 15.928V7.684h-2.448l.018-1.296h3.852v9.54H23.99zm.27-11.214c-.204 0-.402-.042-.594-.126a.795.795 0 01-.396-.396 1.468 1.468 0 01-.126-.594 1.177 1.177 0 01.108-.576.867.867 0 01.414-.414c.192-.084.39-.132.594-.144.204 0 .396.048.576.144.192.084.33.222.414.414.084.18.132.372.144.576-.012.204-.06.402-.144.594a.786.786 0 01-.414.396c-.18.084-.372.126-.576.126zM33.224 16.072c-.48 0-.96-.066-1.44-.198a2.895 2.895 0 01-1.242-.72 2.854 2.854 0 01-.756-1.206l1.35-.432c.096.276.252.516.468.72.216.204.462.348.738.432.288.072.582.108.882.108.3 0 .6-.036.9-.108.3-.072.564-.222.792-.45.228-.24.342-.51.342-.81 0-.444-.198-.798-.594-1.062a2.308 2.308 0 00-1.242-.45 12.012 12.012 0 01-1.296-.18 3.14 3.14 0 01-1.188-.54 2.64 2.64 0 01-.828-.99 2.967 2.967 0 01-.288-1.278c0-.408.096-.798.288-1.17.204-.372.48-.672.828-.9.36-.228.738-.384 1.134-.468a6.055 6.055 0 011.224-.126c.48 0 .954.066 1.422.198.48.132.9.372 1.26.72s.612.75.756 1.206l-1.35.432a1.784 1.784 0 00-.468-.72 1.675 1.675 0 00-.756-.414 2.95 2.95 0 00-.864-.126c-.3 0-.6.036-.9.108a1.59 1.59 0 00-.792.468 1.087 1.087 0 00-.342.792c0 .444.192.804.576 1.08.396.264.81.414 1.242.45a8.05 8.05 0 011.314.18c.432.084.828.258 1.188.522s.636.6.828 1.008c.192.396.288.816.288 1.26a2.4 2.4 0 01-.306 1.17 2.296 2.296 0 01-.828.9 3.245 3.245 0 01-1.134.468 5.796 5.796 0 01-1.206.126zM38.84 15.928V2.698h1.44v5.058c.12-.216.258-.42.414-.612a2.59 2.59 0 01.9-.666 2.738 2.738 0 012.214 0c.36.156.66.384.9.684.252.288.45.612.594.972.144.348.24.708.288 1.08.06.372.09.75.09 1.134v5.58h-1.44v-5.58c0-.324-.03-.642-.09-.954a2.881 2.881 0 00-.324-.9 1.737 1.737 0 00-.666-.684 1.615 1.615 0 00-.9-.27c-.324 0-.63.09-.918.27a1.776 1.776 0 00-.648.684 2.881 2.881 0 00-.324.9c-.06.312-.09.63-.09.954v5.58h-1.44zM51.386 16.072a4.173 4.173 0 01-1.53-.288 2.993 2.993 0 01-1.242-.9 3.752 3.752 0 01-.72-1.368 6.225 6.225 0 01-.198-1.548v-1.62c0-.516.066-1.02.198-1.512.132-.504.354-.96.666-1.368a3.03 3.03 0 011.206-.918c.48-.204.978-.306 1.494-.306s1.014.102 1.494.306c.48.204.876.51 1.188.918.324.408.552.864.684 1.368.132.492.198.996.198 1.512v1.458h-5.688v.162c0 .336.036.672.108 1.008.084.336.222.648.414.936.192.276.444.492.756.648a2.294 2.294 0 001.908.018c.312-.144.564-.354.756-.63.204-.276.354-.57.45-.882l1.314.522a3.828 3.828 0 01-.738 1.332c-.336.396-.75.69-1.242.882-.48.18-.972.27-1.476.27zm-2.25-5.562h4.248v-.162a4.55 4.55 0 00-.108-.99 2.448 2.448 0 00-.36-.9c-.18-.288-.42-.51-.72-.666a1.826 1.826 0 00-.936-.252c-.336 0-.654.084-.954.252a1.867 1.867 0 00-.702.666 2.71 2.71 0 00-.378.9c-.06.324-.09.654-.09.99v.162zM59.54 15.928c-1.8-3.996-2.7-6.858-2.7-8.586v-.954h1.44v.954c0 1.524.66 3.972 1.98 7.344 1.32-3.372 1.98-5.82 1.98-7.344v-.954h1.44v.954c0 1.728-.9 4.59-2.7 8.586h-1.44z" fill="#24FF00"/><path d="M1 13.464V.234h6.3V1.53H2.44v4.14h3.834v1.296H2.44v5.202H7.3v1.296H1zM9.46 17.154V3.924h1.44v1.368c.12-.216.258-.42.414-.612.252-.3.558-.522.918-.666.36-.156.726-.234 1.098-.234.492 0 .954.12 1.386.36a2.58 2.58 0 011.026.972c.264.42.444.87.54 1.35.108.468.162.942.162 1.422v1.62c0 .48-.054.96-.162 1.44a3.996 3.996 0 01-.54 1.332 2.71 2.71 0 01-1.026.99 2.933 2.933 0 01-2.484.126 2.46 2.46 0 01-.918-.684 4.214 4.214 0 01-.414-.612v5.058H9.46zm3.438-4.842c.324 0 .636-.078.936-.234.3-.168.534-.396.702-.684.18-.288.3-.594.36-.918.072-.324.108-.648.108-.972v-1.62c0-.324-.036-.648-.108-.972-.06-.324-.18-.63-.36-.918a1.708 1.708 0 00-.702-.666 1.89 1.89 0 00-.936-.252c-.324 0-.63.084-.918.252-.288.168-.51.396-.666.684a3.1 3.1 0 00-.324.918c-.06.312-.09.63-.09.954v1.62c0 .324.03.648.09.972.06.312.168.612.324.9.156.288.378.516.666.684.288.168.594.252.918.252zM21.61 13.464V5.22h-2.448l.018-1.296h3.852v9.54H21.61zm.27-11.214c-.204 0-.402-.042-.594-.126a.795.795 0 01-.396-.396 1.468 1.468 0 01-.126-.594 1.177 1.177 0 01.108-.576.867.867 0 01.414-.414c.192-.084.39-.132.594-.144.204 0 .396.048.576.144.192.084.33.222.414.414.084.18.132.372.144.576-.012.204-.06.402-.144.594a.786.786 0 01-.414.396c-.18.084-.372.126-.576.126zM30.844 13.608c-.48 0-.96-.066-1.44-.198a2.895 2.895 0 01-1.242-.72 2.854 2.854 0 01-.756-1.206l1.35-.432c.096.276.252.516.468.72.216.204.462.348.738.432.288.072.582.108.882.108.3 0 .6-.036.9-.108.3-.072.564-.222.792-.45.228-.24.342-.51.342-.81 0-.444-.198-.798-.594-1.062a2.308 2.308 0 00-1.242-.45 12.012 12.012 0 01-1.296-.18 3.14 3.14 0 01-1.188-.54 2.64 2.64 0 01-.828-.99 2.967 2.967 0 01-.288-1.278c0-.408.096-.798.288-1.17.204-.372.48-.672.828-.9.36-.228.738-.384 1.134-.468a6.055 6.055 0 011.224-.126c.48 0 .954.066 1.422.198.48.132.9.372 1.26.72s.612.75.756 1.206l-1.35.432a1.784 1.784 0 00-.468-.72 1.675 1.675 0 00-.756-.414 2.95 2.95 0 00-.864-.126c-.3 0-.6.036-.9.108a1.59 1.59 0 00-.792.468 1.087 1.087 0 00-.342.792c0 .444.192.804.576 1.08.396.264.81.414 1.242.45a8.05 8.05 0 011.314.18c.432.084.828.258 1.188.522s.636.6.828 1.008c.192.396.288.816.288 1.26a2.4 2.4 0 01-.306 1.17 2.296 2.296 0 01-.828.9 3.245 3.245 0 01-1.134.468 5.796 5.796 0 01-1.206.126zM36.46 13.464V.234h1.44v5.058c.12-.216.258-.42.414-.612a2.59 2.59 0 01.9-.666 2.738 2.738 0 012.214 0c.36.156.66.384.9.684.252.288.45.612.594.972.144.348.24.708.288 1.08.06.372.09.75.09 1.134v5.58h-1.44v-5.58c0-.324-.03-.642-.09-.954a2.881 2.881 0 00-.324-.9 1.737 1.737 0 00-.666-.684 1.615 1.615 0 00-.9-.27c-.324 0-.63.09-.918.27a1.776 1.776 0 00-.648.684 2.881 2.881 0 00-.324.9c-.06.312-.09.63-.09.954v5.58h-1.44zM49.006 13.608a4.173 4.173 0 01-1.53-.288 2.993 2.993 0 01-1.242-.9 3.752 3.752 0 01-.72-1.368 6.225 6.225 0 01-.198-1.548v-1.62c0-.516.066-1.02.198-1.512.132-.504.354-.96.666-1.368a3.03 3.03 0 011.206-.918c.48-.204.978-.306 1.494-.306s1.014.102 1.494.306c.48.204.876.51 1.188.918.324.408.552.864.684 1.368.132.492.198.996.198 1.512v1.458h-5.688v.162c0 .336.036.672.108 1.008.084.336.222.648.414.936.192.276.444.492.756.648a2.294 2.294 0 001.908.018c.312-.144.564-.354.756-.63.204-.276.354-.57.45-.882l1.314.522a3.828 3.828 0 01-.738 1.332c-.336.396-.75.69-1.242.882-.48.18-.972.27-1.476.27zm-2.25-5.562h4.248v-.162a4.55 4.55 0 00-.108-.99 2.448 2.448 0 00-.36-.9c-.18-.288-.42-.51-.72-.666a1.826 1.826 0 00-.936-.252c-.336 0-.654.084-.954.252a1.867 1.867 0 00-.702.666 2.71 2.71 0 00-.378.9c-.06.324-.09.654-.09.99v.162zM57.16 13.464c-1.8-3.996-2.7-6.858-2.7-8.586v-.954h1.44v.954c0 1.524.66 3.972 1.98 7.344 1.32-3.372 1.98-5.82 1.98-7.344v-.954h1.44v.954c0 1.728-.9 4.59-2.7 8.586h-1.44z" fill="#FB21FF"/></symbol></svg>